<svg width="18" height="18" viewBox="0 0 18 18" fill="none" xmlns="http://www.w3.org/2000/svg">
<path d="M2.53006 17.7001H8.16393V11.7165H6.13978V9.74387H8.16393V7.27809C8.16393 5.91844 9.29895 4.81231 10.6941 4.81231H13.2243V6.78493H11.2001C10.6421 6.78493 10.1881 7.22736 10.1881 7.77125V9.74387H13.133L12.7956 11.7165H10.1881V17.7001H14.7424C16.1376 17.7001 17.2726 16.594 17.2726 15.2343V3.33284C17.2726 1.9732 16.1376 0.867065 14.7424 0.867065H2.53006C1.1349 0.867065 -0.00012207 1.9732 -0.00012207 3.33284V15.2343C-0.00012207 16.594 1.1349 17.7001 2.53006 17.7001ZM1.01195 3.33284C1.01195 2.51708 1.69299 1.85338 2.53006 1.85338H14.7424C15.5795 1.85338 16.2605 2.51708 16.2605 3.33284V15.2343C16.2605 16.0501 15.5795 16.7138 14.7424 16.7138H11.2001V12.7028H13.653L14.3277 8.75756H11.2001V7.77125H14.2364V3.826H10.6941C8.74086 3.826 7.15186 5.37456 7.15186 7.27809V8.75756H5.12771V12.7028H7.15186V16.7138H2.53006C1.69299 16.7138 1.01195 16.0501 1.01195 15.2343V3.33284Z" fill="white"/>
</svg>
