<svg width="18" height="18" viewBox="0 0 18 18" fill="none" xmlns="http://www.w3.org/2000/svg">
<path d="M8.63623 0.183716C3.88964 0.183716 -0.00012207 4.00735 -0.00012207 8.63312C-0.00012207 13.2321 3.85419 17.0168 8.63623 17.0168C13.4123 17.0168 17.2726 13.2377 17.2726 8.63312C17.2726 4.00735 13.3828 0.183716 8.63623 0.183716ZM10.1543 15.8825C9.6686 15.9811 9.15241 16.0305 8.63623 16.0305C8.12005 16.0305 7.60386 15.9811 7.11812 15.8825V13.5746C7.11812 13.0222 7.26993 12.825 7.47235 12.5586C7.5754 12.4438 7.6376 12.3408 8.09975 11.6612L7.32054 11.5427C5.31655 11.2567 4.52719 10.2408 4.21342 9.45171C3.80859 8.39643 4.02115 7.07467 4.7499 6.23644C4.86125 6.10814 4.95231 5.8911 4.8714 5.6643C4.71946 5.21057 4.73975 4.49061 4.84096 4.21437C5.37757 4.28911 5.92933 4.66373 6.38951 4.93445C6.60154 5.05504 6.71277 5.0232 6.8145 5.03308C7.18428 4.95808 7.76108 4.77662 8.64638 4.77662C9.19287 4.77662 9.7698 4.85547 10.3366 5.01331C10.4379 5.01099 10.6008 5.09499 10.8831 4.93445C11.3641 4.64883 11.8971 4.28706 12.4315 4.21437C12.5327 4.49061 12.553 5.21057 12.4012 5.6643C12.3201 5.8911 12.4112 6.10814 12.5227 6.23644C13.2513 7.0748 13.4639 8.39643 13.059 9.45171C12.7453 10.2408 11.9559 11.2567 9.95192 11.5427L9.17271 11.6612C9.65041 12.3636 9.70075 12.4479 9.80025 12.5586C10.0025 12.825 10.1543 13.0222 10.1543 13.5746V15.8825ZM11.1664 15.5965V13.5746C11.1664 13.0123 11.0449 12.6376 10.883 12.3613C12.4214 11.957 13.5145 11.0692 14.0002 9.79692C14.5164 8.45564 14.2837 6.85776 13.4233 5.75304C13.5752 5.09229 13.5752 4.03688 13.2109 3.54373C13.0489 3.32682 12.8262 3.20841 12.5429 3.20841C12.5327 3.20841 12.5327 3.20841 12.5327 3.20841C11.748 3.24976 11.1303 3.63491 10.4681 4.02699C9.86086 3.86916 9.24347 3.79031 8.62608 3.79031C7.99868 3.79031 7.37114 3.87905 6.81463 4.02699C6.11751 3.61732 5.50579 3.24873 4.69929 3.20841C4.44628 3.20841 4.22357 3.32682 4.06161 3.54373C3.69737 4.03688 3.69737 5.09229 3.84918 5.75304C2.98879 6.85776 2.75606 8.4654 3.27225 9.79692C3.75799 11.0692 4.85111 11.957 6.38951 12.3613C6.26392 12.5754 6.16456 12.8517 6.12542 13.2255C5.81468 13.3299 5.54519 13.364 5.29455 13.2922C5.03019 13.216 4.82422 13.044 4.64526 12.7507C4.24333 12.0927 3.55874 11.5555 2.77926 11.6253L2.86821 12.6078C3.22915 12.5755 3.58839 12.9477 3.77499 13.2545C4.08283 13.7598 4.49754 14.0911 5.00792 14.238C5.38679 14.3468 5.73311 14.3442 6.10605 14.2667V15.5965C3.16089 14.5904 1.01195 11.8485 1.01195 8.63312C1.01195 4.54982 4.44628 1.17003 8.63623 1.17003C12.8262 1.17003 16.2605 4.54982 16.2605 8.63312C16.2605 11.8485 14.1116 14.5904 11.1664 15.5965Z" fill="white"/>
</svg>
