<svg width="18" height="18" viewBox="0 0 18 18" fill="none" xmlns="http://www.w3.org/2000/svg">
<path d="M2.53006 17.139H14.7424C16.1376 17.139 17.2726 16.0328 17.2726 14.6732V2.77169C17.2726 1.41204 16.1376 0.305908 14.7424 0.305908H2.53006C1.1349 0.305908 -0.00012207 1.41204 -0.00012207 2.77169V14.6732C-0.00012207 16.0328 1.1349 17.139 2.53006 17.139ZM1.01195 2.77169C1.01195 1.95593 1.69299 1.29222 2.53006 1.29222H14.7424C15.5795 1.29222 16.2605 1.95593 16.2605 2.77169V14.6732C16.2605 15.489 15.5795 16.1527 14.7424 16.1527H2.53006C1.69299 16.1527 1.01195 15.489 1.01195 14.6732V2.77169Z" fill="white"/>
<path d="M8.63623 13.1609C11.1474 13.1609 13.1906 11.1697 13.1906 8.72246C13.1906 6.27518 11.1474 4.28406 8.63623 4.28406C6.12503 4.28406 4.08191 6.27518 4.08191 8.72246C4.08191 11.1697 6.12503 13.1609 8.63623 13.1609ZM8.63623 5.27037C10.5895 5.27037 12.1785 6.81893 12.1785 8.72246C12.1785 10.626 10.5895 12.1746 8.63623 12.1746C6.68299 12.1746 5.09398 10.626 5.09398 8.72246C5.09398 6.81893 6.68299 5.27037 8.63623 5.27037Z" fill="white"/>
<path d="M13.4091 5.02995C14.2361 5.02995 14.9091 4.37438 14.9091 3.56862C14.9091 2.76287 14.2361 2.1073 13.4091 2.1073C12.582 2.1073 11.9091 2.76287 11.9091 3.56862C11.9091 4.37438 12.582 5.02995 13.4091 5.02995ZM13.4091 3.08152C13.6847 3.08152 13.9091 3.30008 13.9091 3.56862C13.9091 3.83717 13.6847 4.05573 13.4091 4.05573C13.1334 4.05573 12.9091 3.83717 12.9091 3.56862C12.9091 3.30008 13.1334 3.08152 13.4091 3.08152Z" fill="white"/>
</svg>
