<svg width="18" height="15" viewBox="0 0 18 15" fill="none" xmlns="http://www.w3.org/2000/svg">
<path d="M17.2726 2.82921C16.1861 2.87801 16.2098 2.87403 16.087 2.88404L16.7304 1.09314C16.7304 1.09314 14.7218 1.81323 14.2126 1.94204C12.8753 0.770665 10.8876 0.718909 9.46645 1.57012C8.30269 2.26734 7.67806 3.46466 7.8864 4.86412C5.62149 4.55782 3.71318 3.51153 2.20654 1.74773L1.73002 1.18998L1.37395 1.82723C0.923921 2.63246 0.774482 3.55314 0.953045 4.41963C1.02631 4.77512 1.15085 5.11416 1.32335 5.43163L0.914565 5.27726L0.86607 5.94289C0.816916 6.61906 1.04793 7.40836 1.48412 8.05409C1.60694 8.23594 1.76507 8.43564 1.96551 8.63265L1.75427 8.60106L2.01203 9.36378C2.35084 10.3659 3.05454 11.1412 3.96778 11.5722C3.05573 11.9494 2.31895 12.19 1.10789 12.5783L-0.00012207 12.9332L1.02328 13.4785C1.41349 13.6865 2.7923 14.3809 4.15465 14.5892C7.18296 15.052 10.5925 14.6751 12.8879 12.6605C14.8212 10.9636 15.4556 8.54981 15.3238 6.03793C15.3039 5.65766 15.4108 5.29473 15.6248 5.01617C16.0535 4.45842 17.2699 2.83293 17.2726 2.82921V2.82921ZM14.8155 4.42541C14.4601 4.88787 14.2821 5.47851 14.314 6.08827C14.447 8.62199 13.7396 10.5869 12.2113 11.9282C10.4261 13.4951 7.54654 14.1101 4.31133 13.6156C3.72544 13.5261 3.11991 13.3256 2.61875 13.1254C3.63411 12.7849 4.41821 12.4814 5.68448 11.8974L7.45218 11.082L5.50052 10.9602C4.56567 10.9019 3.78724 10.4604 3.30875 9.74353C3.56282 9.72915 3.8078 9.68908 4.05173 9.62281L5.91312 9.11758L4.03618 8.66963C3.12412 8.45195 2.60425 7.92014 2.3287 7.51226C2.14776 7.24423 2.02956 6.96966 1.95866 6.71653C2.14684 6.76572 2.36626 6.80078 2.72009 6.83494L4.45735 7.00241L3.0809 5.95599C2.08912 5.20213 1.69167 4.06954 1.98304 2.98075C5.07829 6.10946 8.71253 5.87431 9.07835 5.95702C8.99784 5.19481 8.99573 5.19301 8.97464 5.12045C8.50616 3.50652 9.53286 2.68704 9.99594 2.40964C10.9632 1.83031 12.4986 1.74298 13.562 2.69744C13.7917 2.90344 14.1023 2.98447 14.3931 2.91409C14.654 2.85091 14.8681 2.784 15.0778 2.71118L14.6413 3.92583L15.1985 3.92622C15.0933 4.06364 14.9672 4.22815 14.8155 4.42541Z" fill="white"/>
</svg>
