<svg width="103" height="28" viewBox="0 0 103 28" fill="none" xmlns="http://www.w3.org/2000/svg">
<path d="M15.6596 27.4404C12.7496 27.4404 9.73305 27.4148 6.68105 27.3637L5.98903 27.3552C4.54287 27.3296 2.90154 27.3041 1.47313 27.2615C0.67464 27.2359 0.018105 26.6311 0.000360849 25.8643C-0.0173833 25.072 0.621407 24.4246 1.44651 24.399C1.44651 24.399 1.44651 24.399 1.45538 24.399C1.75704 24.3905 1.95222 24.0923 1.83688 23.8282C1.06501 22.0988 0.665768 20.2075 0.665768 18.2736C0.665768 15.2663 1.62395 12.3868 3.43386 9.94178C4.99535 7.83752 7.08917 6.1933 9.51125 5.15395C9.54674 4.89837 9.59997 4.65983 9.67982 4.44685C9.95485 3.68863 10.3896 2.70039 11.2591 1.84846C12.3947 0.732439 13.9029 0.170166 15.7483 0.170166C17.6026 0.170166 19.1286 0.749477 20.2731 1.88254C21.3378 2.93893 21.6926 4.14015 21.7991 4.60019C21.8346 4.7791 21.8612 4.97504 21.879 5.20506C24.2744 6.26145 26.3327 7.89715 27.8676 9.98438C29.6598 12.4209 30.6091 15.2834 30.6091 18.2736C30.6091 20.216 30.2098 22.1158 29.438 23.8708C29.3315 24.1179 29.509 24.399 29.7929 24.4075C29.8017 24.4075 29.8017 24.4075 29.8106 24.4075C30.6091 24.4331 31.2656 25.0379 31.2834 25.8047C31.3011 26.597 30.6623 27.2444 29.8372 27.27C28.3378 27.3126 26.6965 27.3467 24.8334 27.3808C21.7902 27.4319 18.8358 27.4574 16.0411 27.4574L15.6596 27.4404Z" fill="white"/>
<path d="M10.8868 6.27002L8.42038 7.46272L6.73468 8.6895L4.8538 10.683L3.72704 12.4295L2.96404 14.1759L2.36074 16.7487L2.28976 19.0745L2.60916 21.1702L3.26569 23.496L4.86267 25.8388H26.5461L27.7882 23.4108L28.6931 21.0595L29.0125 17.541L28.4447 14.5678L27.451 12.2506L26.0315 10.1974L24.3103 8.50207L22.8287 7.2753L20.3356 6.40633L10.8868 6.27002Z" fill="#008BCA"/>
<path d="M28.7375 19.8583C28.8173 19.3556 28.773 18.9211 28.5867 18.5293C28.3471 18.0351 27.9124 17.6773 27.3623 17.5069C26.3065 17.1917 23.0948 15.5049 21.1075 14.4059C20.9478 14.2696 20.7969 14.1418 20.655 14.0311L20.6816 13.7329C20.9389 13.1962 21.143 12.6254 21.2938 12.029C21.3293 11.995 21.3648 11.9609 21.4002 11.9268C21.7906 11.5349 22.0745 10.9556 22.1455 10.4189C22.7133 9.43066 22.7666 8.28056 22.6069 7.45419L20.9744 6.48299C20.9744 6.48299 20.6994 6.41484 20.2912 6.31261C20.2291 6.29557 20.3888 6.50003 20.1493 7.33492C20.1138 7.45419 20.1138 8.68949 20.0783 8.8258C20.0251 9.01322 20.0694 10.1718 20.0073 10.3763C19.9718 10.5041 19.9097 11.339 19.8742 11.4753C19.8121 11.6968 19.4661 12.472 19.404 12.7021C19.3419 12.9236 19.1911 13.571 19.1379 13.8011C19.0935 13.98 19.1201 14.7893 19.0669 14.9682C18.9959 15.2493 19.8831 14.9512 19.8033 15.2238C19.75 15.4282 20.6905 16.0331 20.8768 16.1268C22.4915 16.9702 23.2545 17.2854 23.1658 17.1577L24.5765 17.9329C25.6766 18.4952 26.4485 18.6826 27.1316 18.9637C27.2026 19.2193 27.2647 19.6708 27.2647 20.3183L27.6018 21.6729L27.939 22.84L28.4536 21.8518L28.7907 20.182L28.7375 19.8583Z" fill="#047FA6"/>
<path d="M5.61675 25.8729H6.31764C6.69914 25.8729 7.95011 25.8218 8.50905 25.8218C9.28979 25.8218 11.0287 25.8729 11.428 25.8729H12.2708C12.6346 25.8729 14.0275 25.8388 14.5509 25.8388C14.9147 25.8388 15.793 25.8729 15.9882 25.8729H16.8311C17.0529 25.8729 18.3127 25.8558 18.641 25.8558C19.1467 25.8558 20.2912 25.8729 20.5485 25.8729H22.1188C22.2342 25.8729 22.6689 25.8729 22.7842 25.8729H23.5206C23.7247 25.8729 24.3901 25.8729 24.5853 25.8729H25.3217C25.3749 25.8729 25.5878 25.8729 25.6411 25.8729H26.3242L26.8565 25.251L27.8946 23.3001L27.2292 20.2672L27.1493 18.9978L24.3546 17.754L21.7196 16.3654L19.9984 15.5134L19.0846 14.9852L12.2619 15.1301L11.9425 15.2153L11.0465 15.7349L9.76001 16.6039L7.63071 17.3791L5.01345 18.5633L4.58759 19.0063V19.543L4.47225 20.0286L3.47857 23.2319L3.38098 23.4364L4.86262 25.8558C5.17314 25.8644 5.52803 25.8729 5.61675 25.8729Z" fill="#293F6E"/>
<path d="M24.47 22.2351C24.47 22.2351 24.3546 24.8676 25.5257 25.8132C25.6588 25.924 23.6626 25.8132 23.6626 25.8132L23.7602 24.5779L24.47 22.2351Z" fill="#203456"/>
<path d="M11.3037 7.73487L11.0553 6.55921L11.0997 4.82127L11.774 3.58597L12.954 2.40179L14.267 1.85656L16.0414 1.6095L17.461 1.88211L18.6055 2.43587L19.5725 3.41559L20.2646 4.47198L20.3533 5.79247L20.1581 7.3515L20.7614 7.09592L21.0098 7.40262L21.1163 8.31418L20.9921 9.14056L20.442 10.0521V10.7166L19.9718 11.0915L19.6613 12.0882L19.058 13.6387L18.3216 14.4225L17.9401 14.874L17.0529 15.7345L15.4736 15.8197L14.0097 15.4108L13.1137 14.431L12.12 13.1872L11.5522 11.2278L11.1707 10.9807L10.8868 10.5974V10.0095L10.3722 8.82534L10.2923 7.72635L10.5851 7.15556L10.9666 7.19816L11.3037 7.73487Z" fill="#FFCDAF"/>
<path d="M20.9301 7.27472L20.2913 7.0873L20.3534 5.22158L19.9541 3.88405L18.8274 2.5806L17.6297 1.95869L15.8996 1.61792L14.6309 1.68607L14.0808 1.92461C16.8134 2.20575 18.9161 4.45484 17.0175 7.96479C17.0175 7.96479 16.4497 8.28 15.9794 8.25444C15.9794 8.25444 15.8641 8.63781 16.2101 8.83375C16.2101 8.83375 16.7957 12.1989 15.3052 12.2755L14.622 12.1733L14.4091 12.0114C14.4091 12.0114 14.6131 12.5482 14.9414 12.5482C14.9414 12.5482 15.1721 12.8804 15.6867 12.8975C15.8197 12.8975 15.4116 13.3149 15.5891 13.2638C15.5891 13.2638 16.4319 13.3745 15.7576 14.1839C15.4737 14.1753 15.1721 14.1157 14.8527 13.9964C14.8083 13.9794 14.7728 14.0305 14.8083 14.0646C14.9325 14.2009 15.7488 14.1583 15.2253 14.5757C15.0656 14.6695 15.1366 14.8143 15.2874 14.7887C15.3584 14.7802 15.4205 14.7717 15.4915 14.7717C15.6157 14.7547 15.7665 14.8313 15.8907 14.8398L16.3255 15.7599L17.3812 15.5129L17.6918 15.1551L18.7475 15.0613L19.0936 14.6354L18.9693 13.4256L19.5194 12.4459L19.9453 11.0232L20.2026 10.9125L20.5575 10.0094L21.072 8.70596L20.9301 7.27472Z" fill="#EBBBA1"/>
<path d="M15.2696 9.57549C15.2696 9.57549 15.2075 9.33695 15.2252 9.10693C15.2252 9.10693 14.9857 9.25176 14.8615 9.51586C14.6574 9.35399 14.2759 9.15805 13.8234 9.17509C13.3 9.19213 12.9274 9.42215 12.7144 9.50734C12.6612 9.52438 12.6612 9.60105 12.7144 9.61809C13.0161 9.72884 13.6904 9.95034 14.3735 9.89923C14.3735 9.89923 14.551 9.90775 14.7728 9.89923C14.8703 9.99294 15.0212 10.2144 14.9413 10.6063C14.8349 11.109 14.3291 11.2197 14.2848 11.6883L14.267 11.7138C14.2404 11.7479 14.2049 11.782 14.1606 11.8161C14.0807 11.8757 13.992 11.9183 13.8944 11.9694C13.7081 12.0631 13.504 12.1654 13.3355 12.3187C13.1669 12.4721 13.0516 12.668 13.0072 12.8725C12.9628 13.0769 12.9895 13.2814 13.0516 13.4688C13.0782 13.2729 13.1048 13.0854 13.1758 12.9065C13.2379 12.7362 13.3443 12.5828 13.4863 12.455C13.6283 12.3272 13.8057 12.2165 13.9831 12.0972C14.0719 12.0376 14.1606 11.9694 14.2316 11.8842C14.2493 11.8672 14.2582 11.8501 14.267 11.8331C14.267 11.8587 14.2759 11.8927 14.2759 11.9268C14.3558 12.3528 14.4977 11.9268 14.4977 11.9268C14.4977 11.9268 14.4179 11.126 15.2518 11.1004L15.2075 10.257L15.2696 9.57549Z" fill="#EBBBA1"/>
<path d="M12.3152 8.93671C12.2709 8.95375 12.2265 8.90262 12.262 8.86853C12.4306 8.65546 12.8387 8.27194 13.5307 8.31455C14.1961 8.35717 14.2405 8.57023 14.7817 8.67251C14.9325 8.69807 14.9769 8.88557 14.8615 8.9708C14.7906 9.02194 14.6575 9.09864 14.5244 9.09864C14.0719 9.09864 13.8146 8.79182 13.3799 8.75773C13.0871 8.73217 12.7145 8.76626 12.3152 8.93671Z" fill="#EBBBA1"/>
<path d="M14.0541 11.7478C14.0541 11.7904 14.0541 11.8415 14.0364 11.8841C14.0186 11.9266 13.992 11.9692 13.9565 12.0033C13.8944 12.0714 13.8146 12.1225 13.7347 12.1736C13.575 12.2673 13.4242 12.344 13.3 12.4462C13.1758 12.5484 13.0693 12.6761 13.0072 12.8209C12.9362 12.9657 12.8919 13.136 12.8564 13.3063C12.8209 13.136 12.8209 12.9486 12.8741 12.7698C12.9274 12.5909 13.0338 12.4206 13.1847 12.3014C13.3355 12.1821 13.5129 12.1055 13.6726 12.0374C13.7525 12.0033 13.8323 11.9692 13.9033 11.9266C13.9388 11.9011 13.9654 11.8756 13.992 11.85L14.0098 11.8245C14.0186 11.8159 14.0187 11.8074 14.0275 11.7989C14.0364 11.7904 14.0453 11.7734 14.0541 11.7478Z" fill="#272A24"/>
<path d="M17.2481 11.7478C17.257 11.7648 17.2659 11.7904 17.2747 11.8074C17.2836 11.8159 17.2836 11.8245 17.2925 11.833L17.3102 11.8585C17.3368 11.8926 17.3634 11.9181 17.3989 11.9352C17.4699 11.9777 17.5498 12.0118 17.6296 12.0459C17.7893 12.114 17.9668 12.1821 18.1176 12.3099C18.2684 12.4291 18.3837 12.5995 18.4281 12.7783C18.4813 12.9571 18.4813 13.136 18.4458 13.3148C18.4104 13.1445 18.366 12.9742 18.295 12.8294C18.224 12.6761 18.1265 12.5569 18.0022 12.4547C17.878 12.3525 17.7183 12.2758 17.5675 12.1821C17.4877 12.131 17.4078 12.0799 17.3457 12.0118C17.3102 11.9777 17.2836 11.9352 17.2659 11.8926C17.2481 11.8415 17.2392 11.7904 17.2481 11.7478Z" fill="#272A24"/>
<path d="M15.7044 12.6931C15.4205 12.6931 15.2608 12.5569 15.1543 12.4717C15.1011 12.4291 15.0745 12.4036 15.0567 12.4036C14.6752 12.3951 14.4091 12.2332 14.3204 11.9692C14.2671 11.8245 14.3825 11.6371 14.4889 11.5093C14.4978 11.4923 14.5155 11.4923 14.5244 11.4923C14.5333 11.4923 14.551 11.5008 14.5599 11.5093C14.5688 11.5179 14.5688 11.5264 14.5688 11.5349C14.5599 11.6882 14.5688 11.8074 14.6043 11.8841C14.6752 12.0289 14.8349 12.114 15.0745 12.1225C15.1987 12.1225 15.2785 12.1907 15.3584 12.2588C15.4471 12.3354 15.5447 12.4121 15.7222 12.4121C15.8907 12.4121 15.9706 12.344 16.0504 12.2843C16.1214 12.2332 16.2013 12.1736 16.3077 12.1736H16.3343C16.5295 12.1736 16.6803 12.097 16.7957 11.9522C16.8489 11.8756 16.8844 11.7563 16.8933 11.5775C16.8933 11.5519 16.9199 11.5434 16.9376 11.5434C16.9465 11.5434 16.9643 11.5434 16.9731 11.569C17.053 11.7223 17.1417 11.9352 17.0618 12.0799C16.9376 12.3269 16.6715 12.4717 16.3432 12.4717C16.3343 12.4717 16.3077 12.4717 16.3077 12.4717H16.2988C16.2811 12.4802 16.2634 12.4973 16.2279 12.5228C16.1214 12.5739 15.9706 12.6931 15.7044 12.6931Z" fill="#272A24"/>
<path d="M15.1365 11.4575C15.172 11.2787 15.1898 11.0998 15.1986 10.921C15.1986 10.7421 15.1898 10.5718 15.1809 10.393C15.172 10.2141 15.1543 10.0353 15.1631 9.84791C15.172 9.66055 15.1898 9.47318 15.2607 9.30286C15.2785 9.49022 15.3051 9.66055 15.3317 9.83939C15.3583 10.0182 15.3849 10.1971 15.3938 10.3844C15.4027 10.5718 15.4027 10.7592 15.3672 10.9465C15.3317 11.1254 15.2607 11.3127 15.1365 11.4575Z" fill="#272A24"/>
<path d="M12.2797 8.68116C12.2353 8.6982 12.191 8.64707 12.2265 8.61297C12.395 8.41695 12.7854 8.14422 13.4863 8.19536C14.1606 8.24649 14.2049 8.45104 14.7639 8.55332C14.9147 8.57888 14.9946 8.67263 14.8703 8.74934C14.7994 8.80048 14.7106 8.83457 14.5776 8.82605C14.1162 8.81752 13.8944 8.59593 13.4508 8.54479C13.1492 8.52775 12.6878 8.53627 12.2797 8.68116Z" fill="#272A24"/>
<path d="M12.2708 13.6221V14.8144L13.8678 15.5127L13.0871 14.2693L12.2708 13.6221Z" fill="#EBBBA1"/>
<path d="M11.3925 7.98232L10.9666 7.13892L10.4609 7.23263L10.2923 7.85453L10.2568 8.80869L10.9577 10.0525L10.8868 10.7255L11.5167 11.0748L11.3747 10.1207L11.4191 8.71498L11.3925 7.98232Z" fill="#EBBBA1"/>
<path d="M12.2708 14.9852L12.6701 18.8104L14.409 18.6826L14.1606 17.8477L14.3558 17.4644L15.5624 16.1353L13.7791 15.4368L12.2708 14.9852Z" fill="white"/>
<path d="M14.1073 2.01819C14.1073 2.01819 11.0287 3.61129 11.3038 6.9253L11.0465 6.55045L10.9666 5.57073L11.3747 4.24172L12.4305 2.819L13.4331 2.01819H14.1073V2.01819Z" fill="white"/>
<path d="M6.85 20.4886C6.81451 21.068 7.10729 24.6801 6.53948 25.3276C6.45075 25.4298 6.20234 25.6087 5.95392 25.7876C5.62565 26.0176 7.63074 25.8984 7.63074 25.8984L7.42668 23.6323L6.85 20.4886Z" fill="#203456"/>
<path d="M12.0757 15.4281C12.0757 15.4281 10.39 16.382 9.62701 18.1278L9.39633 17.8723L9.84881 16.927L10.5852 16.0668L11.8273 15.36L12.0757 15.4281Z" fill="white"/>
<path d="M9.80441 16.7487C9.80441 16.7487 5.13769 18.6484 4.96912 19.117C4.80055 19.5856 4.96912 19.9008 4.96912 19.9008L4.52551 19.3641L4.66747 18.904L5.38611 18.3758L6.93872 17.6261L9.38742 16.5868L9.6802 16.6038L9.80441 16.7487Z" fill="white"/>
<path d="M12.5814 9.34557L13.3532 9.10693L14.1872 9.23478L14.2937 9.53308L13.8235 9.57569H13.2113L12.5814 9.34557Z" fill="white"/>
<path d="M14.6664 9.5245C14.5155 9.36256 14.1074 9.01312 13.5662 9.03868C13.0428 9.07278 12.6879 9.23471 12.475 9.32847C12.4217 9.35403 12.4217 9.42222 12.4838 9.43927C12.7855 9.54154 13.4686 9.73757 14.1518 9.66939L13.9211 9.78871C13.8945 9.79723 13.9122 9.83985 13.9389 9.83132C14.0986 9.81428 14.4002 9.76314 14.6575 9.64382C14.693 9.61825 14.7019 9.55859 14.6664 9.5245ZM13.0517 9.28585C13.1049 9.26028 13.1936 9.22619 13.3089 9.1921C13.3267 9.18358 13.3444 9.20062 13.3356 9.21767C13.3267 9.24324 13.3267 9.2688 13.3267 9.29437C13.3267 9.35403 13.3444 9.40517 13.3711 9.44779C13.3799 9.45631 13.3711 9.46483 13.3622 9.46483C13.2557 9.43926 13.1404 9.39665 13.0428 9.33699C13.025 9.33699 13.025 9.3029 13.0517 9.28585ZM14.2405 9.47336C14.1873 9.4904 14.0897 9.50745 13.9744 9.51597C13.9566 9.51597 13.9477 9.49893 13.9566 9.4904C14.001 9.43074 14.0187 9.36256 14.0187 9.28585C14.0187 9.27733 14.0187 9.26028 14.0187 9.25176C14.0986 9.29437 14.1784 9.34551 14.2583 9.4137C14.276 9.43074 14.2671 9.46483 14.2405 9.47336Z" fill="#272A24"/>
<path d="M18.7741 9.33705L18.0111 9.10693L17.1682 9.23478L17.0706 9.53308L17.532 9.57569H18.153L18.7741 9.33705Z" fill="white"/>
<path d="M16.7513 9.65238C17.0086 9.7717 17.3014 9.82284 17.4699 9.83988C17.4965 9.83988 17.5054 9.80579 17.4877 9.79727L17.257 9.67795C17.9402 9.74613 18.6233 9.5501 18.925 9.44783C18.9782 9.43078 18.9782 9.35408 18.925 9.33703C18.7209 9.2518 18.366 9.08134 17.8337 9.05577C17.2925 9.03021 16.8844 9.37964 16.7336 9.54158C16.6892 9.56715 16.7069 9.62681 16.7513 9.65238ZM18.3483 9.34555C18.2507 9.40521 18.1442 9.44783 18.0289 9.4734C18.02 9.4734 18.0111 9.46487 18.0111 9.45635C18.0377 9.41374 18.0555 9.35408 18.0555 9.30294C18.0555 9.27737 18.0555 9.2518 18.0466 9.22623C18.0466 9.20919 18.0555 9.19214 18.0732 9.20066C18.1886 9.22623 18.2773 9.26885 18.3305 9.28589C18.366 9.29442 18.366 9.32851 18.3483 9.34555ZM17.1417 9.41374C17.2215 9.34555 17.3014 9.28589 17.3812 9.2518C17.3812 9.26032 17.3812 9.27737 17.3812 9.28589C17.3812 9.3626 17.399 9.43078 17.4433 9.49044C17.4522 9.49897 17.4433 9.51601 17.4256 9.51601C17.3102 9.50749 17.2126 9.49044 17.1594 9.4734C17.1239 9.46487 17.115 9.43078 17.1417 9.41374Z" fill="#272A24"/>
<path d="M15.7309 13.4008C16.423 13.4008 16.7158 13.5031 17.0351 13.5031C17.3102 13.5031 17.5763 13.3667 17.5763 13.3667C17.6385 13.4093 17.7538 13.3326 17.7715 13.2729C17.7893 13.2048 17.5586 13.0173 17.5409 13.111C17.5231 13.2048 17.3191 13.3241 17.186 13.3241C17.044 13.3241 16.627 13.0173 16.3343 13.0002C16.2012 12.9917 15.9616 13.0514 15.8285 13.0854C15.7664 13.1025 15.7043 13.1025 15.6334 13.0854C15.5003 13.0514 15.2607 12.9917 15.1276 13.0002C14.8349 13.0173 14.4179 13.3241 14.2759 13.3241C14.134 13.3241 13.9388 13.2048 13.921 13.111C13.9033 13.0173 13.6726 13.2048 13.6904 13.2729C13.7081 13.3411 13.8323 13.4093 13.8856 13.3667C13.8856 13.3667 14.1517 13.5031 14.4267 13.5031C14.7461 13.5031 15.0389 13.4008 15.7309 13.4008Z" fill="#272A24"/>
<path d="M16.9287 13.7415C16.9553 13.7159 16.9198 13.6733 16.8843 13.6903C16.4851 13.8522 16.0947 13.9034 15.7576 13.8949C15.4204 13.9034 15.0389 13.8608 14.6574 13.7074C14.6131 13.6903 14.5776 13.7415 14.6131 13.7755C14.7461 13.9119 14.9768 14.1079 15.314 14.2102C15.2962 14.2187 15.2696 14.2187 15.2518 14.2272C15.1809 14.2528 15.1188 14.2869 15.0478 14.321C14.8881 14.4147 14.9325 14.4403 15.0833 14.4147C15.1543 14.4062 15.2164 14.3892 15.2873 14.3807C15.4204 14.3636 15.5535 14.3551 15.6866 14.3551C15.8197 14.3551 15.9527 14.3636 16.0858 14.3807C16.1834 14.3892 16.281 14.4062 16.3875 14.4318C16.423 14.4403 16.4407 14.3977 16.4141 14.3807C16.3342 14.321 16.2455 14.2699 16.1479 14.2358C16.5294 14.1165 16.7956 13.8778 16.9287 13.7415Z" fill="#272A24"/>
<path d="M10.2569 19.0741L9.32533 18.8868C9.13014 18.8442 9.03255 18.6398 9.13014 18.478L9.39631 17.9926L9.75119 18.1373L10.8336 18.5376L10.6295 18.9123L10.2569 19.0741Z" fill="#203456"/>
<path d="M15.4027 16.493C15.0478 16.7656 14.7284 17.0722 14.4711 17.4213C14.3292 17.6002 14.3026 17.8386 14.3824 18.0515L14.6574 18.7499L16.6803 18.7243L17.0085 18.0771C17.1239 17.8472 17.0973 17.5746 16.9376 17.3788C16.6537 17.0296 16.2899 16.7485 15.8907 16.476C15.7398 16.3823 15.5358 16.3909 15.4027 16.493Z" fill="#BF3F4A"/>
<path d="M4.37466 20.3522C4.37466 20.3522 4.97796 20.7866 5.11104 21.8596C5.24412 22.9327 5.51028 21.2294 5.19976 20.6247C4.88924 20.0201 4.59646 19.8923 4.59646 19.8923L4.37466 20.3522Z" fill="#203456"/>
<path d="M15.6422 16.5357C15.6422 16.5357 16.4939 17.4384 16.4407 17.9239C16.3786 18.4093 15.7753 18.7414 15.7753 18.7414H16.8311L17.319 17.8302L16.7246 17.1233C16.7246 17.1233 16.1568 16.6209 16.1302 16.5953C16.0947 16.5698 15.6511 16.408 15.6511 16.408V16.5357H15.6422Z" fill="#A43447"/>
<path d="M19.1201 8.68116C19.1645 8.6982 19.2088 8.64707 19.1734 8.61297C19.0048 8.41695 18.6144 8.14422 17.9135 8.19536C17.2392 8.24649 17.1949 8.45104 16.6359 8.55332C16.4851 8.57888 16.4053 8.67263 16.5295 8.74934C16.6005 8.80048 16.6892 8.83457 16.8223 8.82605C17.2836 8.81752 17.5054 8.59593 17.949 8.54479C18.2507 8.52775 18.712 8.53627 19.1201 8.68116Z" fill="#272A24"/>
<path d="M8.37597 25.7621C9.15671 25.7621 10.8956 25.8132 11.2949 25.8132H12.1377C12.5015 25.8132 13.8944 25.7792 14.4179 25.7792C14.7816 25.7792 15.66 25.8132 15.8551 25.8132H16.698C16.9198 25.8132 18.1796 25.7962 18.5079 25.7962C19.0136 25.7962 20.1581 25.8132 20.4154 25.8132H21.9858C22.1011 25.8132 22.5358 25.8132 22.6512 25.8132H23.3875C23.4674 25.8132 23.636 25.8132 23.8134 25.8132L24.6119 20.6506L24.7361 19.9435L23.9997 19.4323L18.9515 18.8189L14.7195 18.6826L11.7651 18.8189L8.74859 19.1171L7.11613 19.6794L6.9032 20.2928L7.67507 25.7707C7.9501 25.7707 8.19852 25.7621 8.37597 25.7621Z" fill="#E0DFDC"/>
<path d="M16.8932 18.6485L18.7652 18.8104L18.9072 17.2258L19.0935 14.9852L17.6651 15.2067L15.935 16.2035L17.4078 17.8733L16.8932 18.6485Z" fill="white"/>
<path d="M18.295 18.8955C18.295 18.8955 22.3318 19.6026 22.5536 21.5109C22.7399 23.1552 22.039 24.9442 18.2329 25.8558C17.3723 26.0603 23.7513 25.8047 23.7513 25.8047L24.5676 20.6334L24.5055 19.7986L23.4674 19.2533L20.1315 18.9551L18.295 18.8955Z" fill="#C3C3C3"/>
<path d="M18.4459 18.8104C18.4459 18.8104 7.48883 19.3128 6.90327 20.3007L6.85004 19.909L7.16943 19.6109L8.11875 19.3724L10.2037 19.117L13.5396 18.7933L16.6892 18.7593L18.4459 18.8104Z" fill="white"/>
<path d="M15.8375 23.9384C16.4744 23.9384 16.9908 23.5151 16.9908 22.993C16.9908 22.471 16.4744 22.0477 15.8375 22.0477C15.2005 22.0477 14.6841 22.471 14.6841 22.993C14.6841 23.5151 15.2005 23.9384 15.8375 23.9384Z" fill="#C3C3C3"/>
<path d="M20.6195 18.7929L21.7729 18.4948C21.968 18.4522 22.0656 18.2478 21.968 18.086L21.7019 17.6006L21.347 17.7454L20.3533 18.2138V18.5374L20.6195 18.7929Z" fill="#203456"/>
<path d="M15.8552 24.1342C15.1543 24.1342 14.551 23.6828 14.4534 23.0866C14.4002 22.7715 14.551 22.5245 14.6929 22.3713C14.968 22.0561 15.4471 21.8347 15.8552 21.8347C16.2633 21.8347 16.7335 22.0561 17.0174 22.3713C17.1505 22.5245 17.3102 22.7715 17.257 23.0866C17.1594 23.6828 16.5561 24.1342 15.8552 24.1342ZM15.8552 22.1413C15.5447 22.1413 15.2519 22.2605 15.0656 22.4649C14.9059 22.6267 14.8349 22.8311 14.8526 23.0355C14.897 23.4869 15.3317 23.8276 15.8552 23.8276C16.3786 23.8276 16.8134 23.4869 16.8577 23.0355C16.8755 22.8311 16.8045 22.6267 16.6448 22.4649C16.4585 22.2605 16.1657 22.1413 15.8552 22.1413Z" fill="#272A24"/>
<path d="M29.7932 25.6765C28.8439 25.6509 27.8946 25.6254 26.9453 25.6083C28.4802 23.4359 29.2875 20.9142 29.2875 18.2732C29.2875 15.5471 28.4269 12.9316 26.7945 10.7166C25.2241 8.5868 23.0682 6.97665 20.5485 6.03953C20.584 5.53689 20.5751 5.145 20.513 4.86387C20.4509 4.58273 20.1848 3.61153 19.333 2.76812C18.4458 1.89063 17.2481 1.44763 15.7665 1.44763C14.2937 1.44763 13.1048 1.88212 12.2354 2.73404C11.5433 3.41559 11.1885 4.23344 10.9578 4.86387C10.8513 5.16204 10.807 5.54541 10.8424 6.01397C8.30502 6.93405 6.13136 8.5442 4.54326 10.6825C2.89305 12.9061 2.02358 15.53 2.02358 18.2732C2.02358 20.9227 2.83094 23.4444 4.36582 25.6169C3.49635 25.6339 2.37847 25.6594 1.509 25.685C1.30494 25.6935 1.30494 25.9832 1.509 25.9832C3.15921 26.0343 5.07558 26.0599 6.72579 26.0854C9.7423 26.1365 12.7588 26.1621 15.7753 26.1621C18.7918 26.1621 21.8084 26.1365 24.8249 26.0854C26.4839 26.0599 28.1519 26.0258 29.811 25.9747C29.9884 25.9747 29.9973 25.685 29.7932 25.6765ZM20.4687 6.6444C20.4775 6.61032 20.513 6.58476 20.5485 6.6018C25.4637 8.51012 28.7463 13.1531 28.7463 18.2732C28.7463 19.5852 28.5334 20.8546 28.1253 22.0643C28.0809 22.2006 27.8769 22.1921 27.8502 22.0558L27.4066 20.0623C27.38 19.9515 27.38 19.8323 27.3978 19.713C27.4421 19.4659 27.4421 19.2444 27.3623 19.074C27.2824 18.9122 27.1494 18.8014 26.9542 18.7503C25.3749 18.2732 20.6372 15.6493 20.2912 15.4619C20.0694 15.2574 19.8476 15.0785 19.6436 14.9337C19.3863 14.7548 19.2443 14.4651 19.2709 14.1669L19.3508 13.3917C19.6258 12.8635 19.8831 12.199 20.0517 11.3896C20.0694 11.2959 20.1404 11.2107 20.2291 11.1767C20.3001 11.1426 20.3622 11.1 20.4154 11.0489C20.655 10.8103 20.8147 10.3929 20.7969 10.1629C20.7969 10.0947 20.8147 10.018 20.859 9.9584C21.4091 9.14907 21.3825 8.06712 21.2139 7.47077C21.1341 7.20667 21.0099 7.03628 20.8413 6.97665C20.7171 6.92553 20.584 6.92553 20.4598 6.97665C20.4421 6.98517 20.4332 6.97665 20.4332 6.97665C20.4332 6.97665 20.4243 6.96813 20.4243 6.95109C20.4421 6.83182 20.4509 6.73811 20.4687 6.6444ZM20.1049 18.6396L20.2469 18.7503C20.0251 18.7247 19.7944 18.7077 19.5726 18.6907C19.5282 18.6907 19.4129 18.6822 19.2621 18.6651C19.1201 18.6566 19.0225 18.5373 19.0314 18.4095C19.129 17.1657 19.1733 16.1434 19.2 15.53C19.2088 15.3256 19.4572 15.2148 19.6258 15.3426C19.8121 15.4874 20.0517 15.6919 20.3178 15.956C21.0454 16.6631 21.4801 17.2594 21.5599 17.4809L20.167 18.1284C19.963 18.2306 19.9275 18.5032 20.1049 18.6396ZM20.3001 7.62412C20.3178 7.58152 20.513 7.20667 20.7082 7.28334C20.7526 7.30038 20.8236 7.39409 20.8679 7.55596C21.0099 8.0586 21.0808 9.11499 20.4598 9.89877C20.4332 9.93284 20.4154 9.98396 20.4243 10.0266C20.4509 10.1714 20.3356 10.6144 20.1493 10.7933C20.2025 10.3844 20.238 9.96692 20.2469 9.53244C20.2469 9.42169 20.3178 9.31945 20.4243 9.28538L20.4332 9.27686C20.513 9.2513 20.5663 9.16611 20.5485 9.08091C20.4864 8.75718 20.6284 8.37381 20.7171 8.17787C20.7348 8.13527 20.726 8.08416 20.6816 8.0586C20.6639 8.04156 20.6372 8.04156 20.6195 8.04156C20.5929 8.04156 20.5751 8.05008 20.5574 8.06712C20.4864 8.11823 20.4154 8.16935 20.3356 8.22047C20.309 8.2375 20.2735 8.2375 20.2469 8.22047C20.2202 8.20343 20.2025 8.17787 20.2025 8.14379C20.2114 7.99896 20.2469 7.82858 20.3001 7.62412ZM11.2772 4.98314C11.5966 4.11417 12.4483 1.79692 15.7487 1.79692C17.1328 1.79692 18.2418 2.20585 19.058 3.01518C19.8387 3.79044 20.0872 4.68496 20.1404 4.94054C20.2912 5.61356 20.0694 6.93405 19.9275 7.66671C19.9009 7.7945 19.8831 7.90525 19.8654 7.98193C19.8387 8.09268 19.8387 8.20343 19.8476 8.31418C19.8476 8.35677 19.8565 8.39937 19.8565 8.43345C19.9896 10.0947 19.6791 11.4493 19.3951 12.2842C19.3153 12.5312 19.2177 12.7783 19.1112 13.0083L19.0757 13.0765C18.8539 13.545 18.5257 13.8943 18.295 14.1073C18.2861 14.1158 18.2773 14.1158 18.2684 14.1073C18.2595 14.1073 18.2506 14.0988 18.2506 14.0903C18.2506 14.0221 18.2595 13.9454 18.2595 13.8602C18.2595 13.8176 18.2418 13.775 18.1974 13.758C18.1353 13.7324 18.0643 13.758 18.0466 13.8176C17.878 14.3118 17.4078 15.4448 16.7779 15.4448C16.3254 15.4448 16.2189 15.2318 16.1125 15.0189C16.0326 14.8485 15.9439 14.6781 15.6777 14.6781C15.3761 14.6781 15.2696 14.8825 15.172 15.0785C15.0656 15.2915 14.9591 15.4874 14.6131 15.4874C14.6042 15.4874 14.6042 15.4874 14.5953 15.4874C14.0009 15.4789 13.5041 14.2862 13.3178 13.775C13.3 13.7324 13.2645 13.7069 13.2113 13.7069C13.2024 13.7069 13.1935 13.7069 13.1935 13.7069C13.1403 13.7154 13.1048 13.758 13.1048 13.8176C13.1048 13.8517 13.1048 13.8858 13.1137 13.9199C13.1137 13.9454 13.096 13.9539 13.0871 13.9539C13.0782 13.9539 13.0605 13.9625 13.0427 13.9454C12.7854 13.7324 12.4305 13.3917 12.2265 12.9913C11.9071 12.2671 11.703 11.4493 11.6143 10.5633C11.5256 9.66874 11.5877 8.89349 11.6232 8.51864C11.6321 8.43345 11.6409 8.35677 11.6587 8.27158C11.6675 8.18639 11.6675 8.1012 11.6321 8.016C11.6232 7.98193 11.6054 7.93933 11.5877 7.89673C11.4369 7.45373 10.9667 5.84358 11.2772 4.98314ZM18.6765 16.5438L17.7982 17.6087C17.7272 17.6939 17.5941 17.6854 17.5409 17.6002C17.2392 17.1657 16.8311 16.7909 16.3343 16.4501C16.281 16.416 16.2988 16.3308 16.3698 16.3223C16.9464 16.2371 17.4522 15.9645 17.7449 15.6152C17.9756 15.5385 18.2329 15.4363 18.4724 15.3341C18.641 15.2659 18.8185 15.3852 18.8185 15.5556C18.8185 15.726 18.783 16.1604 18.7652 16.3564C18.7386 16.4331 18.712 16.4927 18.6765 16.5438ZM18.7386 17.3361C18.7209 17.6939 18.6854 18.1369 18.641 18.631C18.2861 18.6055 17.9579 18.5884 17.9046 18.5799C17.6562 18.5714 17.4078 18.5629 17.1594 18.5544C17.2304 18.4351 17.3013 18.3158 17.3457 18.2391C17.3812 18.188 17.4522 18.171 17.5054 18.2221C17.6296 18.3414 17.8337 18.3243 17.9401 18.188L18.6055 17.2935C18.6499 17.2339 18.7386 17.2679 18.7386 17.3361ZM13.8944 17.6939C13.8412 17.7706 13.7259 17.7706 13.6638 17.7024L12.7322 16.6972C12.6346 16.5864 12.5725 16.4586 12.5636 16.3138C12.537 16.0241 12.5193 15.743 12.5015 15.4874C12.4927 15.3596 12.6435 15.2744 12.7588 15.3341C13.0782 15.513 13.5041 15.7089 14.0009 15.8367C14.2405 16.0241 14.6397 16.203 14.9946 16.2712C15.0833 16.2882 15.1099 16.3905 15.0478 16.4501C14.5953 16.8505 14.205 17.2679 13.8944 17.6939ZM14.2671 18.5544C14.1162 18.5629 13.9654 18.5629 13.8146 18.5714C13.7081 18.5799 13.2379 18.6055 12.8298 18.631C12.7943 18.2306 12.7588 17.7365 12.7322 17.4809C12.7322 17.4298 12.8032 17.4043 12.8387 17.4469L13.4952 18.2391C13.6283 18.3925 13.8678 18.401 14.0098 18.2562C14.0453 18.2136 14.1162 18.2221 14.1429 18.2732L14.2671 18.5544ZM11.011 18.3925L9.70682 17.9921C9.56486 17.9495 9.50276 17.7961 9.58261 17.6684C10.0528 16.9016 10.6827 16.1604 11.5877 15.6408C11.8361 15.4959 12.1555 15.6493 12.1821 15.9304C12.2354 16.6375 12.3418 17.515 12.4572 18.3669C12.4749 18.5203 12.3596 18.6566 12.1999 18.6736C12.191 18.6736 12.1821 18.6736 12.1733 18.6736C11.8361 18.6992 11.4901 18.7333 11.153 18.7673C11.2417 18.6396 11.1796 18.4436 11.011 18.3925ZM12.4217 14.2095L12.4039 14.0221C12.6257 14.3203 12.8919 14.627 13.2113 14.9166C13.3 14.9933 13.371 15.0785 13.4331 15.1722C13.1048 15.0189 12.8475 14.84 12.679 14.6951C12.5281 14.5759 12.4305 14.397 12.4217 14.2095ZM14.6397 17.5576C14.8792 17.2424 15.1632 16.9698 15.4914 16.7142C15.6156 16.6205 15.8019 16.612 15.935 16.6972C16.2988 16.9357 16.6271 17.1998 16.8843 17.515C17.0352 17.6939 17.0529 17.941 16.9464 18.154L16.7513 18.5373C16.423 18.5288 16.0947 18.5288 15.7753 18.5288C15.4293 18.5288 15.0744 18.5373 14.7284 18.5373L14.5687 18.1284C14.48 17.941 14.5155 17.728 14.6397 17.5576ZM18.5434 14.8485C18.437 14.8911 18.3394 14.9251 18.2329 14.9592C18.2329 14.9592 18.2329 14.9507 18.224 14.9507C18.224 14.9507 18.224 14.9507 18.2152 14.9422C18.3749 14.7888 18.6321 14.5162 18.9072 14.1073L18.8717 14.3969C18.8717 14.6014 18.7386 14.7718 18.5434 14.8485ZM11.3038 8.19491C11.2949 8.22047 11.2772 8.2375 11.2594 8.24602C11.2328 8.25454 11.2062 8.25454 11.1796 8.24602C11.082 8.19491 10.9933 8.13527 10.9134 8.06712C10.8779 8.04156 10.8247 8.04156 10.7892 8.06712C10.7537 8.09268 10.736 8.14379 10.7537 8.17787C10.8513 8.39085 10.9933 8.79126 10.9134 9.12351C10.8957 9.19166 10.94 9.25982 11.011 9.27686C11.0199 9.27686 11.0199 9.27686 11.0288 9.27686C11.1264 9.31093 11.1973 9.40465 11.1973 9.50688C11.1973 9.87321 11.2062 10.2481 11.2417 10.6059C11.2506 10.6655 11.2506 10.7166 11.2594 10.7763C11.2594 10.7848 11.2506 10.7933 11.2506 10.7933C11.2417 10.7933 11.2328 10.7933 11.2239 10.7848C11.0376 10.6059 10.9312 10.1543 10.9489 10.0095C10.9578 9.9584 10.94 9.9158 10.9134 9.87321C10.3012 9.08943 10.3634 8.03304 10.5142 7.53892C10.5585 7.37706 10.6295 7.28334 10.6739 7.26631C10.6916 7.25779 10.7094 7.25779 10.7271 7.25779C10.9134 7.25779 11.0731 7.60708 11.082 7.60708C11.1441 7.76894 11.2683 8.09268 11.3038 8.19491ZM2.53816 18.2732C2.53816 13.1276 5.83858 8.47604 10.7981 6.58476C10.8424 6.56772 10.8957 6.59328 10.9045 6.6444C10.9134 6.71255 10.9312 6.79774 10.94 6.8659C10.9489 6.91701 10.9045 6.95961 10.8513 6.95109C10.7537 6.93405 10.6561 6.94257 10.5585 6.97665C10.39 7.0448 10.2658 7.21519 10.1859 7.47077C10.0085 8.06712 9.98185 9.10647 10.5142 9.92432C10.5763 10.0095 10.6029 10.1203 10.6029 10.2225C10.594 10.4781 10.7715 10.8359 10.9933 11.0489C11.0465 11.1 11.1086 11.1426 11.1707 11.1767C11.2772 11.2278 11.3482 11.3215 11.3659 11.4237C11.4546 11.9604 11.6143 12.659 12.0136 13.3917L12.0845 14.3629C12.1112 14.6696 11.9515 14.9592 11.6853 15.1211C11.1973 15.4107 10.7626 15.726 10.3811 16.0838C9.139 16.5608 5.17318 18.1114 4.62311 18.6481C4.35694 18.9037 4.32145 19.1592 4.4013 19.4318C4.35694 19.6789 4.06416 21.0676 3.56733 22.4732C3.52297 22.5925 3.3544 22.5925 3.31004 22.4732C2.80433 21.1442 2.53816 19.73 2.53816 18.2732ZM4.79168 25.3102C4.41905 24.7905 4.09078 24.2367 3.80687 23.6659C3.68266 23.4189 3.67379 23.1377 3.77138 22.8822C4.13514 21.9024 4.41018 20.8801 4.56987 20.2156C4.59649 20.1134 4.72957 20.0964 4.7828 20.1815C4.97799 20.4797 5.19092 20.8035 5.31513 21.1868C5.33287 21.2465 5.42159 21.2294 5.42159 21.1698C5.40385 20.829 5.33287 20.3519 5.08445 20.0026C4.69408 19.4659 4.561 19.1678 4.86265 18.8781C5.23528 18.5203 7.66623 17.5065 9.44953 16.7994C9.55599 16.7568 9.64471 16.8761 9.58261 16.9613C9.36968 17.2594 9.18336 17.5832 9.03254 17.9239C8.9793 18.0176 9.03254 18.1284 9.139 18.1625L10.4432 18.5629C10.594 18.614 10.5763 18.827 10.4166 18.844C9.42291 18.9633 8.42923 19.1166 7.4533 19.2955C7.2315 19.3381 7.02744 19.4489 6.88549 19.6108C6.70805 19.8237 6.64594 20.0878 6.69918 20.3519L7.47992 25.5487C7.22263 25.5487 6.97421 25.5572 6.71692 25.5572C6.27332 25.5657 5.82971 25.5743 5.37723 25.5828C5.13769 25.5998 4.92476 25.4976 4.79168 25.3102ZM7.8348 25.5572L7.03632 20.2923C7.00083 20.1219 7.04519 19.9515 7.1694 19.8237C7.24925 19.73 7.37346 19.6704 7.50654 19.6448C10.2391 19.1337 13.0161 18.8696 15.7753 18.8696C18.5346 18.8696 21.3115 19.1252 24.0441 19.6448C24.1772 19.6704 24.3014 19.7385 24.3813 19.8237C24.4966 19.9515 24.5498 20.1219 24.5143 20.2923L23.6271 25.5572C21.001 25.5231 18.3749 25.4976 15.7487 25.4976C13.1137 25.4976 10.4698 25.5146 7.8348 25.5572ZM24.3192 25.5657C24.1417 25.5657 24.0175 25.4124 24.0441 25.2505L24.8604 20.3605C24.9225 20.0793 24.8337 19.7982 24.6297 19.5767C24.4966 19.4318 24.3103 19.3467 24.1062 19.3041C23.1214 19.1166 22.1277 18.9718 21.1341 18.8525C20.9744 18.8355 20.8236 18.7673 20.6993 18.6736L20.5929 18.5884C20.4864 18.5032 20.5042 18.3499 20.6284 18.2903C20.6284 18.2903 21.6753 17.8984 21.9148 17.6343C21.9947 17.5406 21.9503 17.3446 21.5866 16.859C21.5688 16.8335 21.5422 16.7994 21.5244 16.7738C21.4446 16.6716 21.5688 16.5353 21.6841 16.6034C23.3166 17.4809 25.7653 18.7418 26.8477 19.0655C26.9719 19.0996 27.0163 19.1678 27.0429 19.2103C27.1937 19.5341 26.8477 20.3093 26.5194 21.059C26.2533 21.6554 25.9605 22.3199 25.8097 22.9503C25.7919 23.0355 25.9073 23.0781 25.9516 23.0014C26.2089 22.5073 26.6259 21.6809 26.8388 21.1953C26.8832 21.0931 26.9276 20.9994 26.9719 20.8972C27.0251 20.7779 27.2115 20.7949 27.2381 20.9227L27.6196 22.6692C27.6817 22.9588 27.6551 23.2655 27.522 23.5296C27.2292 24.1345 26.8921 24.7138 26.5106 25.259C26.3686 25.472 26.1202 25.5913 25.854 25.5828C25.4991 25.5743 25.1531 25.5743 24.7982 25.5657C24.6386 25.5657 24.4789 25.5657 24.3192 25.5657Z" fill="#272A24"/>
<path d="M41.0053 18.1153C40.5883 18.2772 39.71 18.4476 39.0002 18.4476C37.8912 18.4476 37.0484 18.1494 36.4096 17.5275C35.5756 16.7437 35.132 15.3721 35.1586 13.7619C35.203 10.3713 37.2169 8.96558 39.2752 8.96558C40.0116 8.96558 40.5528 9.10188 40.8633 9.24671L40.5351 10.8057C40.26 10.6694 39.8874 10.5928 39.4261 10.5928C38.1485 10.5928 37.1282 11.4447 37.1282 13.8642C37.1282 16.1047 38.0332 16.9141 38.9115 16.9141C39.0801 16.9141 39.2131 16.897 39.2841 16.863V14.6224H38.4147V13.14H41.0142V18.1153H41.0053Z" fill="white"/>
<path d="M42.4249 9.04309H44.3147V16.8212H46.7988V18.3547H42.4249V9.04309Z" fill="white"/>
<path d="M53.2222 13.5415C53.2222 17.0514 51.9268 18.4741 50.0814 18.4741C47.89 18.4741 47.0206 16.2421 47.0206 13.6863C47.0206 11.139 48.0763 8.94106 50.2234 8.94106C52.5568 8.93254 53.2222 11.4031 53.2222 13.5415ZM48.9813 13.7033C48.9813 15.8161 49.3894 16.8981 50.1524 16.8981C50.9509 16.8981 51.2526 15.5094 51.2526 13.6267C51.2526 11.9824 50.9953 10.5086 50.1435 10.5086C49.3894 10.5086 48.9813 11.7013 48.9813 13.7033Z" fill="white"/>
<path d="M58.2349 16.2334L57.809 18.3632H55.9814L58.0841 9.04309H60.3464L62.2362 18.3547H60.3997L59.9827 16.2248H58.2349V16.2334ZM59.8141 14.8277L59.4947 12.8768C59.3971 12.3145 59.2729 11.3774 59.1753 10.764H59.1398C59.0334 11.3859 58.8914 12.3486 58.7938 12.8853L58.4389 14.8277H59.8141Z" fill="white"/>
<path d="M67.7014 18.2174C67.4263 18.3366 66.9029 18.4389 66.2463 18.4389C63.771 18.4389 62.5822 16.4794 62.5822 13.8385C62.5822 10.3285 64.6139 8.95691 66.4948 8.95691C67.1602 8.95691 67.6215 9.0847 67.8167 9.20397L67.5062 10.7289C67.2844 10.6267 67.0448 10.5415 66.6278 10.5415C65.5543 10.5415 64.5873 11.436 64.5873 13.7362C64.5873 15.9598 65.4656 16.8287 66.6101 16.8287C66.9295 16.8287 67.2932 16.7606 67.515 16.6924L67.7014 18.2174Z" fill="white"/>
<path d="M70.5051 16.2334L70.0793 18.3632H68.2516L70.3543 9.04309H72.6167L74.5064 18.3547H72.6699L72.2529 16.2248H70.5051V16.2334ZM72.0844 14.8277L71.765 12.8768C71.6674 12.3145 71.5432 11.3774 71.4456 10.764H71.4101C71.3036 11.3859 71.1617 12.3486 71.0641 12.8853L70.7092 14.8277H72.0844Z" fill="white"/>
<path d="M75.5621 9.17903C76.0323 9.0768 76.7243 9.00012 77.4785 9.00012C78.7028 9.00012 79.5545 9.27274 80.1756 9.82649C81.0096 10.5421 81.4354 11.7774 81.4354 13.5835C81.4354 15.4748 80.9297 16.8038 80.0869 17.5279C79.4215 18.1328 78.4722 18.431 77.1236 18.431C76.5292 18.431 75.9347 18.3713 75.5621 18.3287V9.17903ZM77.443 16.9231C77.5406 16.9486 77.6825 16.9486 77.7801 16.9486C78.6939 16.9486 79.4836 16.0967 79.4836 13.5239C79.4836 11.607 78.969 10.4484 77.8245 10.4484C77.6914 10.4484 77.5672 10.4569 77.443 10.491V16.9231Z" fill="white"/>
<path d="M86.7232 14.2654H84.5141V16.7871H87.0071V18.3547H82.6243V9.04309H86.8385V10.6106H84.5141V12.749H86.7232V14.2654Z" fill="white"/>
<path d="M94.229 15.0997C94.1758 14.2052 94.1226 13.0125 94.1403 12.0072H94.1048C93.9274 13.0039 93.6701 14.154 93.4926 14.8782L92.6498 18.2007H91.3101L90.5027 14.9293C90.3164 14.1796 90.0591 13.021 89.9083 12.0072H89.8728C89.8462 13.021 89.7752 14.1966 89.7309 15.1167L89.5623 18.3455H87.9476L88.6485 9.03394H90.6358L91.4077 12.4076C91.6739 13.5918 91.9223 14.6141 92.0909 15.6705H92.1263C92.2772 14.6396 92.4901 13.5832 92.7474 12.4076L93.5104 9.03394H95.4978L96.0833 18.3455H94.3976L94.229 15.0997Z" fill="white"/>
<path d="M98.4964 18.354V14.793L96.3671 9.04246H98.3811L99.0376 11.2575C99.2239 11.8623 99.4014 12.5524 99.5433 13.2339H99.57C99.6942 12.5609 99.845 11.8879 100.022 11.2149L100.59 9.03394H102.542L100.377 14.7163V18.354H98.4964Z" fill="white"/>
</svg>
